<svg width="308" height="374" viewBox="0 0 308 374" fill="none" xmlns="http://www.w3.org/2000/svg">
<rect x="0.5" y="0.5" width="307" height="372.603" stroke="white" stroke-opacity="0.6"/>
<path d="M299.106 13.8989V72.2744H8.89697V13.8989H299.106Z" fill="white" fill-opacity="0.6"/>
<path d="M298.606 14.3989V71.7739H9.39697V14.3989H298.606Z" stroke="white" stroke-opacity="0.6"/>
<path d="M299.106 13.8989V72.2744H8.89697V13.8989H299.106Z" stroke="white" stroke-opacity="0.6"/>
<path d="M20.017 57.541H242.4" stroke="white" stroke-opacity="0.6" stroke-width="6" stroke-linecap="round" stroke-linejoin="round"/>
<path d="M20.017 41.9746H166.234" stroke="white" stroke-opacity="0.6" stroke-width="2" stroke-linecap="round" stroke-linejoin="round"/>
<path d="M20.017 28.2142L131.208 28.0752" stroke="white" stroke-opacity="0.6" stroke-width="2" stroke-linecap="round" stroke-linejoin="round"/>
<path d="M8.89697 100.072H106.745" stroke="white" stroke-opacity="0.6" stroke-width="2" stroke-linecap="round" stroke-linejoin="round"/>
<path d="M8.89697 118.418H173.46" stroke="white" stroke-opacity="0.6" stroke-width="6" stroke-linecap="round" stroke-linejoin="round"/>
<path d="M8.89697 153.166H106.745" stroke="white" stroke-opacity="0.6" stroke-width="2" stroke-linecap="round" stroke-linejoin="round"/>
<path d="M8.89697 171.513H173.46" stroke="white" stroke-opacity="0.6" stroke-width="6" stroke-linecap="round" stroke-linejoin="round"/>
<path d="M125.648 266.581H223.497" stroke="white" stroke-opacity="0.6" stroke-width="2" stroke-linecap="round" stroke-linejoin="round"/>
<path d="M125.648 287.151H223.497" stroke="white" stroke-opacity="0.6" stroke-width="2" stroke-linecap="round" stroke-linejoin="round"/>
<path d="M125.648 246.011H290.211" stroke="white" stroke-opacity="0.6" stroke-width="6" stroke-linecap="round" stroke-linejoin="round"/>
<path d="M125.648 329.404H223.497" stroke="white" stroke-opacity="0.6" stroke-width="2" stroke-linecap="round" stroke-linejoin="round"/>
<path d="M125.648 349.975H223.497" stroke="white" stroke-opacity="0.6" stroke-width="2" stroke-linecap="round" stroke-linejoin="round"/>
<path d="M125.648 308.835H290.211" stroke="white" stroke-opacity="0.6" stroke-width="6" stroke-linecap="round" stroke-linejoin="round"/>
<path d="M8.89697 206.26H106.745" stroke="white" stroke-opacity="0.6" stroke-width="2" stroke-linecap="round" stroke-linejoin="round"/>
<path d="M8.89697 224.606H111.749" stroke="white" stroke-opacity="0.6" stroke-width="2" stroke-linecap="round" stroke-linejoin="round"/>
<path d="M106.114 242.285V357.241C106.114 358.878 104.785 360.207 103.147 360.207H18.5998C16.9625 360.207 15.6332 358.878 15.6332 357.241V242.285C15.6332 240.648 16.9625 239.319 18.5998 239.319H103.147C104.785 239.319 106.114 240.648 106.114 242.285Z" stroke="white" stroke-opacity="0.6" stroke-width="4.002"/>
<mask id="mask0_3659_6009" style="mask-type:alpha" maskUnits="userSpaceOnUse" x="13" y="237" width="96" height="126">
<path d="M106.115 242.285V357.241C106.115 358.878 104.785 360.207 103.148 360.207H18.6003C16.9631 360.207 15.6337 358.878 15.6337 357.241V242.285C15.6337 240.648 16.9631 239.319 18.6003 239.319H103.148C104.785 239.319 106.115 240.648 106.115 242.285Z" fill="#FFFBFA"/>
<path d="M18.6005 240.653H103.148C104.049 240.653 104.78 241.385 104.78 242.286V357.241C104.78 358.141 104.049 358.873 103.148 358.874H18.6005C17.7001 358.874 16.9678 358.141 16.9677 357.241V242.286C16.9677 241.385 17.7 240.653 18.6005 240.653Z" stroke="white" stroke-opacity="0.5" stroke-width="2.668"/>
<path d="M106.115 242.285V357.241C106.115 358.878 104.785 360.207 103.148 360.207H18.6003C16.9631 360.207 15.6337 358.878 15.6337 357.241V242.285C15.6337 240.648 16.9631 239.319 18.6003 239.319H103.148C104.785 239.319 106.115 240.648 106.115 242.285Z" stroke="white" stroke-opacity="0.5" stroke-width="4.002"/>
</mask>
<g mask="url(#mask0_3659_6009)">
<path d="M35.4509 281.118C33.5061 279.671 30.0419 282.496 29.8858 288.646C29.7413 294.346 32.7765 297.572 35.5226 297.572C38.2687 297.572 37.9067 282.945 35.4509 281.118Z" fill="#FFFBFA" fill-opacity="0.6"/>
<path d="M34.1748 282.316C34.3622 282.267 34.4513 282.303 34.5273 282.36C34.4941 282.335 34.636 282.446 34.8438 282.945C35.0322 283.397 35.2126 284.015 35.3691 284.773C35.6813 286.284 35.8646 288.183 35.8906 290.052C35.9168 291.931 35.782 293.683 35.5049 294.919C35.3922 295.422 35.2694 295.769 35.165 295.987C33.6554 295.692 31.3083 293.591 31.4326 288.685C31.5041 285.871 32.3306 284.006 33.1641 283.05C33.5827 282.57 33.9502 282.375 34.1748 282.316Z" stroke="white" stroke-opacity="0.6" stroke-width="3.09488"/>
<path d="M35.4509 281.118C33.5061 279.671 30.0419 282.496 29.8858 288.646C29.7413 294.346 32.7765 297.572 35.5226 297.572C38.2687 297.572 37.9067 282.945 35.4509 281.118Z" stroke="white" stroke-opacity="0.6" stroke-width="4.02334"/>
<path d="M85.2532 281.118C87.0268 279.671 90.186 282.496 90.3284 288.646C90.4602 294.346 87.6922 297.572 85.1878 297.572C82.6834 297.572 83.0134 282.945 85.2532 281.118Z" fill="#FFFBFA" fill-opacity="0.6"/>
<path d="M86.2411 282.31C86.242 282.315 86.12 282.455 85.951 282.899C85.7765 283.358 85.6104 283.984 85.4667 284.747C85.1802 286.267 85.013 288.175 84.9891 290.05C84.9652 291.935 85.0872 293.698 85.3427 294.948C85.435 295.399 85.5361 295.73 85.6259 295.956C86.1603 295.8 86.8313 295.354 87.4501 294.403C88.2366 293.194 88.8413 291.284 88.7811 288.681C88.7152 285.836 87.952 283.953 87.1913 282.997C86.8077 282.514 86.493 282.348 86.3466 282.306C86.2686 282.284 86.2611 282.292 86.2411 282.31Z" stroke="white" stroke-opacity="0.6" stroke-width="3.09488"/>
<path d="M85.2532 281.118C87.0268 279.671 90.186 282.496 90.3284 288.646C90.4602 294.346 87.6922 297.572 85.1878 297.572C82.6834 297.572 83.0134 282.945 85.2532 281.118Z" stroke="white" stroke-opacity="0.6" stroke-width="4.02334"/>
<path d="M73.8115 318.77L46.5341 318.77C46.5341 318.77 45.698 328.435 43.3321 333.167C40.9663 337.898 13.125 349.449 8.59629 359.669C0.638425 377.627 46.0628 374.974 59.7296 374.892C72.3538 374.814 123.124 374.678 111.725 357.042C107.699 350.813 79.6802 336.178 77.5277 333.167C75.377 330.156 73.8115 318.77 73.8115 318.77Z" fill="#FFFBFA" fill-opacity="0.6"/>
<path d="M72.4802 320.318C72.5058 320.481 72.5321 320.657 72.5623 320.843C72.7449 321.972 73.0117 323.511 73.3474 325.15C73.6822 326.784 74.0902 328.54 74.5583 330.093C75.0109 331.595 75.5701 333.088 76.2683 334.066L76.2693 334.067C76.5197 334.417 76.8764 334.751 77.2234 335.044C77.592 335.356 78.0428 335.697 78.5505 336.06C79.5668 336.787 80.8828 337.649 82.3855 338.599C85.3829 340.495 89.2481 342.823 93.1091 345.213C96.9937 347.618 100.905 350.103 104.089 352.368C105.681 353.5 107.071 354.563 108.175 355.52C109.3 356.496 110.043 357.291 110.426 357.882C111.713 359.874 111.986 361.401 111.761 362.58C111.536 363.765 110.748 364.914 109.261 366.019C106.223 368.278 100.871 369.906 94.4695 371.027C81.7738 373.249 66.0573 373.305 59.7205 373.344C52.7845 373.386 38.1859 374.064 26.2537 372.511C20.2515 371.73 15.2074 370.412 12.1755 368.355C10.692 367.348 9.79979 366.238 9.42651 365.027C9.05685 363.827 9.12545 362.296 10.0115 360.296C10.9817 358.107 13.3104 355.664 16.5613 353.096C19.7676 350.564 23.6789 348.054 27.5789 345.682C31.4325 343.339 35.35 341.087 38.3708 339.174C39.8923 338.211 41.246 337.298 42.3064 336.458C43.3125 335.662 44.2544 334.783 44.7166 333.859C46.0124 331.267 46.8407 327.463 47.3464 324.45C47.604 322.915 47.7856 321.533 47.9031 320.535C47.9118 320.46 47.9185 320.388 47.9265 320.318H72.4802Z" stroke="white" stroke-opacity="0.6" stroke-width="3.09488"/>
<path d="M74.8812 318.235L47.069 318.235C47.069 318.235 45.698 328.435 43.3321 333.167C40.9663 337.899 13.125 349.449 8.59629 359.67C0.638425 377.628 46.0628 374.974 59.7296 374.892C72.3538 374.814 123.124 374.678 111.725 357.042C107.699 350.813 79.6802 336.178 77.5277 333.167C75.377 330.156 74.8812 318.235 74.8812 318.235Z" stroke="white" stroke-opacity="0.6" stroke-width="4.02334"/>
<path d="M84.3043 278.215V298.217C84.3043 311.571 73.462 322.413 60.1081 322.413C46.7542 322.413 35.9119 311.571 35.9119 298.217V278.215C35.9119 264.861 46.7542 254.019 60.1081 254.019C73.462 254.019 84.3043 264.861 84.3043 278.215Z" fill="#FFFBFA" fill-opacity="0.6"/>
<path d="M60.1082 255.566C72.6074 255.566 82.7566 265.716 82.7566 278.215V298.217C82.7566 310.716 72.6074 320.866 60.1082 320.866C47.6089 320.866 37.4597 310.716 37.4597 298.217V278.215C37.4597 265.716 47.6089 255.566 60.1082 255.566Z" stroke="white" stroke-opacity="0.6" stroke-width="3.09488"/>
<path d="M84.3043 278.215V298.217C84.3043 311.571 73.462 322.413 60.1081 322.413C46.7542 322.413 35.9119 311.571 35.9119 298.217V278.215C35.9119 264.861 46.7542 254.019 60.1081 254.019C73.462 254.019 84.3043 264.861 84.3043 278.215Z" stroke="white" stroke-opacity="0.6" stroke-width="4.02334"/>
</g>
<path d="M106.114 242.285V357.241C106.114 358.878 104.785 360.207 103.147 360.207H18.5998C16.9625 360.207 15.6332 358.878 15.6332 357.241V242.285C15.6332 240.648 16.9625 239.319 18.5998 239.319H103.147C104.785 239.319 106.114 240.648 106.114 242.285Z" stroke="white" stroke-opacity="0.6" stroke-width="4.002"/>
</svg>
