<svg width="432" height="272" viewBox="0 0 432 272" fill="none" xmlns="http://www.w3.org/2000/svg">
<g clip-path="url(#clip0_3659_4843)">
<path d="M395.735 2.92474L36.2644 2.92474C17.8591 2.92474 2.93872 17.7739 2.93872 36.0912L2.93872 235.909C2.93872 254.226 17.8591 269.075 36.2644 269.075L395.735 269.075C414.141 269.075 429.061 254.226 429.061 235.909L429.061 36.0912C429.061 17.7739 414.141 2.92474 395.735 2.92474Z" stroke="white" stroke-opacity="0.6" stroke-width="6" stroke-miterlimit="10"/>
<path d="M135.007 161.942C135.527 172.169 136.457 182.513 138.103 185.087C140.875 189.425 165.845 205.921 184.144 217.688C185.255 214.79 185.823 211.713 185.819 208.611L185.819 54.0393C185.801 47.2211 183.075 40.6865 178.236 35.8598C173.398 31.0331 166.838 28.3058 159.987 28.2724L58.6873 28.2724C51.828 28.293 45.2556 31.0146 40.4062 35.8427C35.5568 40.6707 32.8246 47.2127 32.8065 54.0393L32.8065 208.631C32.805 211.887 33.4302 215.114 34.6482 218.136C48.8131 209.148 78.1126 190.302 81.3257 186.354C83.4808 183.712 84.862 171.643 85.7045 160.363" stroke="white" stroke-opacity="0.6" stroke-width="5" stroke-miterlimit="10"/>
<path d="M159.987 28.2724L58.6971 28.2724C44.3981 28.2724 32.8065 39.8086 32.8065 54.0393L32.8065 208.602C32.8065 222.832 44.3981 234.368 58.6971 234.368L159.987 234.368C174.286 234.368 185.878 222.832 185.878 208.602L185.878 54.0393C185.878 39.8086 174.286 28.2724 159.987 28.2724Z" stroke="white" stroke-opacity="0.6" stroke-width="6" stroke-miterlimit="10"/>
<path d="M151.611 100.474V128.064C154.817 127.424 157.702 125.701 159.778 123.187C161.854 120.673 162.994 117.523 163.004 114.269C162.994 111.015 161.854 107.865 159.778 105.351C157.702 102.838 154.817 101.115 151.611 100.474Z" stroke="white" stroke-opacity="0.6" stroke-width="5" stroke-miterlimit="10"/>
<path d="M72.1176 100.474C68.9138 101.117 66.0313 102.84 63.9572 105.354C61.8832 107.867 60.7448 111.017 60.7347 114.269C60.7458 117.524 61.8869 120.676 63.9648 123.19C66.0427 125.704 68.9298 127.426 72.1372 128.064L72.1176 100.474Z" stroke="white" stroke-opacity="0.6" stroke-width="5" stroke-miterlimit="10"/>
<path d="M112.967 53.6591H110.762C89.4195 53.6591 72.1176 70.8783 72.1176 92.1193L72.1176 130.199C72.1176 151.44 89.4195 168.659 110.762 168.659H112.967C134.31 168.659 151.611 151.44 151.611 130.199V92.1193C151.611 70.8783 134.31 53.6591 112.967 53.6591Z" stroke="white" stroke-opacity="0.6" stroke-width="5" stroke-miterlimit="10"/>
<path d="M213.385 65.1143L386.606 65.1143" stroke="white" stroke-opacity="0.6" stroke-width="7" stroke-miterlimit="10" stroke-linecap="round"/>
<path d="M213.385 97.3838L386.606 97.3838" stroke="white" stroke-opacity="0.6" stroke-width="7" stroke-miterlimit="10" stroke-linecap="round"/>
<path d="M213.385 129.663L386.606 129.663" stroke="white" stroke-opacity="0.6" stroke-width="7" stroke-miterlimit="10" stroke-linecap="round"/>
<path d="M213.385 161.942L313.842 161.942" stroke="white" stroke-opacity="0.6" stroke-width="7" stroke-miterlimit="10" stroke-linecap="round"/>
<path d="M213.385 194.212H288.167" stroke="white" stroke-opacity="0.6" stroke-width="7" stroke-miterlimit="10" stroke-linecap="round"/>
</g>
<defs>
<clipPath id="clip0_3659_4843">
<rect width="432" height="272" fill="white"/>
</clipPath>
</defs>
</svg>
