<svg xmlns="http://www.w3.org/2000/svg" width="24" height="24" viewBox="0 0 24 24" fill="none">
  <g clip-path="url(#clip0_701_11968)">
    <path d="M2 12C2 17.523 6.477 22 12 22C17.523 22 22 17.523 22 12C22 6.477 17.523 2 12 2C6.477 2 2 6.477 2 12Z" fill="#DBDBC4"/>
    <path d="M7.71984 10.7399C7.71984 10.5499 7.78984 10.3599 7.93984 10.2099C8.08098 10.0704 8.27141 9.99219 8.46984 9.99219C8.66827 9.99219 8.85871 10.0704 8.99984 10.2099L11.9998 13.2099L14.9998 10.2099C15.141 10.0704 15.3314 9.99219 15.5298 9.99219C15.7283 9.99219 15.9187 10.0704 16.0598 10.2099C16.3498 10.4999 16.3498 10.9799 16.0598 11.2699L12.5298 14.7999C12.2398 15.0899 11.7598 15.0899 11.4698 14.7999L7.93984 11.2699C7.78984 11.1199 7.71984 10.9299 7.71984 10.7399Z" fill="#001096"/>
  </g>
  <defs>
    <clipPath id="clip0_701_11968">
      <rect width="24" height="24" fill="white" transform="matrix(0 1 -1 0 24 0)"/>
    </clipPath>
  </defs>
</svg>
