<svg width="11" height="7" viewBox="0 0 11 7" fill="none" xmlns="http://www.w3.org/2000/svg">
<path fill-rule="evenodd" clip-rule="evenodd" d="M5.77655 6.14282C5.51158 6.14315 5.2593 6.0297 5.08419 5.83146L1.15547 1.37981C0.897217 1.073 0.931895 0.616784 1.23358 0.352273C1.53526 0.087762 1.9936 0.111708 2.26589 0.406206L5.70127 4.29901C5.72027 4.32063 5.74771 4.33302 5.77655 4.33302C5.80539 4.33302 5.83282 4.32063 5.85183 4.29901L9.2872 0.406206C9.45969 0.201292 9.72999 0.105584 9.99349 0.156115C10.257 0.206647 10.4724 0.395492 10.5563 0.649574C10.6402 0.903656 10.5795 1.18311 10.3976 1.37981L6.47011 5.82986C6.2947 6.02858 6.04208 6.14257 5.77655 6.14282Z" fill="#4F4F4F"/>
</svg>
