<svg xmlns="http://www.w3.org/2000/svg" width="24" height="24" viewBox="0 0 24 24" fill="none">
  <path d="M22 12C22 6.477 17.523 2 12 2C6.477 2 2 6.477 2 12C2 17.523 6.477 22 12 22C17.523 22 22 17.523 22 12Z" fill="#DBDBC4"/>
  <path d="M16.2802 13.2601C16.2802 13.4501 16.2102 13.6401 16.0602 13.7901C15.919 13.9296 15.7286 14.0078 15.5302 14.0078C15.3317 14.0078 15.1413 13.9296 15.0002 13.7901L12.0002 10.7901L9.00016 13.7901C8.85902 13.9296 8.66859 14.0078 8.47016 14.0078C8.27173 14.0078 8.08129 13.9296 7.94016 13.7901C7.65016 13.5001 7.65016 13.0201 7.94016 12.7301L11.4702 9.20011C11.7602 8.91011 12.2402 8.91011 12.5302 9.20011L16.0602 12.7301C16.2102 12.8801 16.2802 13.0701 16.2802 13.2601Z" fill="#001096"/>
</svg>
