<svg width="47" height="79" viewBox="0 0 47 79" fill="none" xmlns="http://www.w3.org/2000/svg">
<g filter="url(#filter0_dd_6_9135)">
<g clip-path="url(#clip0_6_9135)">
<path d="M7 75C4.79086 75 3 73.2091 3 71L3 6C3 3.79086 4.79086 2 7 2H40C42.2091 2 44 3.79086 44 6V71C44 73.2091 42.2091 75 40 75H7Z" fill="white" fill-opacity="0.01" shape-rendering="crispEdges"/>
<g clip-path="url(#clip1_6_9135)">
<rect width="73" height="41" transform="matrix(0 -1 1 0 3 75)" fill="white"/>
</g>
<rect x="11" y="63" width="25" height="6" rx="3" fill="#848282"/>
<mask id="mask0_6_9135" style="mask-type:luminance" maskUnits="userSpaceOnUse" x="-4" y="8" width="56" height="54">
<path d="M51.0264 8.25V61.6221H-3.75V8.25H51.0264Z" fill="white" stroke="white" stroke-width="0.5"/>
</mask>
<g mask="url(#mask0_6_9135)">
<path d="M23.5338 13.3046C32.3117 13.3046 39.4387 22.9976 39.4387 34.9359C39.4387 46.8743 32.3117 56.5673 23.5338 56.5673C14.7559 56.5673 7.62891 46.8743 7.62891 34.9359C7.62891 22.9976 14.7559 13.3046 23.5338 13.3046Z" stroke="#EF4343" stroke-width="0.5"/>
</g>
<mask id="mask1_6_9135" style="mask-type:luminance" maskUnits="userSpaceOnUse" x="3" y="9" width="41" height="52">
<path d="M44 8.99994H3V60.8159H44V8.99994Z" fill="white"/>
</mask>
<g mask="url(#mask1_6_9135)">
<path d="M12.8166 32.7658C11.4254 32.3431 9.47724 33.1516 9.72709 35.8233C9.93631 38.0612 10.9179 40.0953 13.3212 39.499C14.5155 39.2025 14.2242 37.8923 14.1115 36.2089C13.9987 34.5256 14.2078 33.1886 12.8166 32.7658Z" fill="#2D2A29"/>
<path d="M12.8166 32.7658C11.4254 32.3431 9.47724 33.1516 9.72709 35.8233C9.93631 38.0612 10.9179 40.0953 13.3212 39.499" fill="white"/>
<path d="M12.8166 32.7658C11.4254 32.3431 9.47724 33.1516 9.72709 35.8233C9.93631 38.0612 10.9179 40.0953 13.3212 39.499" stroke="#1F1C1C" stroke-width="0.5" stroke-linecap="round" stroke-linejoin="round"/>
<path d="M33.4488 32.694C34.837 32.2616 36.7908 33.0565 36.5596 35.7299C36.366 37.9691 35.3986 40.0101 32.9912 39.4305C31.7949 39.1424 32.077 37.8302 32.178 36.1461C32.279 34.462 32.0606 33.1265 33.4488 32.694Z" fill="#2D2A29"/>
<path d="M33.4488 32.694C34.837 32.2616 36.7908 33.0565 36.5596 35.7299C36.366 37.9691 35.3986 40.0101 32.9912 39.4305" fill="white"/>
<path d="M33.4488 32.694C34.837 32.2616 36.7908 33.0565 36.5596 35.7299C36.366 37.9691 35.3986 40.0101 32.9912 39.4305" stroke="#1F1C1C" stroke-width="0.5" stroke-linecap="round" stroke-linejoin="round"/>
<path d="M22.9836 19.7699C10.6889 19.759 12.5485 31.6191 12.7202 34.8791C12.892 38.139 14.4742 48.8946 22.819 49.1688C31.6395 49.4587 33.3115 38.4419 33.5126 34.8065C33.7137 31.1711 35.1706 19.7808 22.9836 19.7699Z" fill="white"/>
<path d="M22.9836 19.7699C10.6889 19.759 12.5485 31.6191 12.7202 34.8791C12.892 38.139 14.4742 48.8946 22.819 49.1688C31.6395 49.4587 33.3115 38.4419 33.5126 34.8065C33.7137 31.1711 35.1706 19.7808 22.9836 19.7699Z" stroke="#1F1C1C" stroke-width="0.5"/>
<path d="M18.5002 32.9882C19.0534 32.9863 19.5045 33.5775 19.5071 34.3076C19.5096 35.0377 19.0626 35.6321 18.5095 35.634C17.9564 35.6359 17.5052 35.0447 17.5027 34.3146C17.5001 33.5845 17.9471 32.9901 18.5002 32.9882Z" fill="#1F1C1C"/>
<path d="M27.8543 32.9556C28.4074 32.9537 28.8585 33.5449 28.8611 34.275C28.8636 35.0051 28.4166 35.5995 27.8635 35.6014C27.3104 35.6034 26.8592 35.0121 26.8567 34.282C26.8541 33.5519 27.3011 32.9575 27.8543 32.9556Z" fill="#1F1C1C"/>
<path d="M16.7869 32.2059C17.319 31.4557 18.7745 31.1967 19.3896 31.3014" stroke="#1F1C1C" stroke-width="0.5" stroke-linecap="round" stroke-linejoin="round"/>
<path d="M29.4544 32.1618C28.917 31.4153 27.4597 31.1664 26.8454 31.2755" stroke="#1F1C1C" stroke-width="0.5" stroke-linecap="round" stroke-linejoin="round"/>
<path d="M23.7821 34.2257C23.7821 34.2257 23.9006 37.5393 23.7153 38.0477C23.53 38.5561 22.809 38.719 22.6753 38.7195" stroke="#1F1C1C" stroke-width="0.5" stroke-linecap="round" stroke-linejoin="round"/>
<path d="M22.2061 43.3561C22.5924 43.495 23.6224 43.495 24.0386 43.3561" stroke="#1F1C1C" stroke-width="0.5" stroke-linecap="round" stroke-linejoin="round"/>
<path d="M20.4067 41.7226C20.4067 41.7226 20.9766 41.9787 23.0281 41.9695C25.2666 41.9597 26.0352 41.7296 26.0352 41.7296C26.0352 41.7296 24.8853 41.9001 23.0281 41.9102C21.4035 41.9188 20.4067 41.7226 20.4067 41.7226Z" fill="white"/>
<path d="M20.4067 41.7226C20.4067 41.7226 20.9766 41.9787 23.0281 41.9695C25.2666 41.9597 26.0352 41.7296 26.0352 41.7296C26.0352 41.7296 24.8853 41.9001 23.0281 41.9102C21.4035 41.9188 20.4067 41.7226 20.4067 41.7226Z" stroke="#1F1C1C" stroke-width="0.5" stroke-linecap="round" stroke-linejoin="round"/>
<path d="M14.7529 37.8635C14.7529 37.8635 13.7216 37.769 12.1802 31.7942" stroke="#1F1C1C" stroke-width="0.5" stroke-linecap="round" stroke-linejoin="round"/>
<path d="M31.9355 37.8037C31.9355 37.8037 33.1531 35.1909 34.0523 31.9394" stroke="#1F1C1C" stroke-width="0.5" stroke-linecap="round" stroke-linejoin="round"/>
<path d="M30.1131 44.7719C32.8699 42.1709 32.6121 41.0965 33.3281 39.0691" stroke="#1F1C1C" stroke-width="0.5" stroke-linecap="round" stroke-linejoin="round"/>
<path d="M15.9583 44.3053C12.9669 41.7936 13.5822 41.0725 12.9102 39.1367" stroke="#1F1C1C" stroke-width="0.5" stroke-linecap="round" stroke-linejoin="round"/>
<path d="M23.5395 35.7791C22.209 35.8127 20.8818 36.8009 19.8988 36.9489C18.9158 37.097 14.2002 36.9399 14.2002 36.9399C14.2002 36.9399 14.8418 38.8845 14.5395 43.456C14.947 44.1777 18.2676 49.5368 23.7893 49.3449C29.3426 49.1519 30.0401 45.5982 31.7525 43.445C31.4236 40.033 32.4235 36.7895 32.4235 36.7895C32.4235 36.7895 27.9696 37.0075 27.1879 36.8367C26.4063 36.6659 24.87 35.7456 23.5395 35.7791Z" fill="#8C8686"/>
<path d="M23.5395 35.7791C22.209 35.8127 20.8818 36.8009 19.8988 36.9489C18.9158 37.097 14.2002 36.9399 14.2002 36.9399C14.2002 36.9399 14.8418 38.8845 14.5395 43.456C14.947 44.1777 18.2676 49.5368 23.7893 49.3449C29.3426 49.1519 30.0401 45.5982 31.7525 43.445C31.4236 40.033 32.4235 36.7895 32.4235 36.7895C32.4235 36.7895 27.9696 37.0075 27.1879 36.8367C26.4063 36.6659 24.87 35.7456 23.5395 35.7791Z" stroke="#1F1C1C" stroke-width="0.5" stroke-linecap="round" stroke-linejoin="round"/>
<path d="M15.9506 41.186C15.9506 41.186 20.9811 40.4164 23.2088 40.4954C25.2934 40.5693 28.8217 40.8229 30.0955 41.1077" stroke="#1F1C1C" stroke-width="0.5" stroke-linecap="round" stroke-linejoin="round"/>
<path d="M16.7091 43.0347C16.7091 43.0347 20.4734 44.1497 23.1346 44.1114C25.2202 44.0815 28.5125 43.4274 29.5233 42.961" stroke="#1F1C1C" stroke-width="0.5" stroke-linecap="round" stroke-linejoin="round"/>
<path d="M16.8896 44.9433C16.8896 44.9433 20.1057 46.4363 23.2297 46.3964C25.3155 46.3699 28.3463 45.424 29.3571 44.9576" stroke="#1F1C1C" stroke-width="0.5" stroke-linecap="round" stroke-linejoin="round"/>
<path d="M24.4977 33.6644C23.735 33.2493 22.1671 33.3089 21.8622 33.6667" stroke="#1F1C1C" stroke-width="0.5"/>
<path d="M20.3603 31.5591C19.1688 31.1374 15.5236 31.2855 13.8285 31.6531C13.3137 31.7646 12.2788 32.0196 12.2788 32.0196C12.2788 32.0196 12.1192 32.3118 12.3143 32.4721C12.5095 32.6324 12.9966 32.9201 13.0624 33.0813C13.1282 33.2426 13.2715 35.2465 13.3093 36.0224C13.347 36.7983 13.9747 38.7019 17.3064 38.808C22.1564 38.9624 21.9392 34.8696 21.9937 33.9244C22.0514 32.9215 21.1222 31.8285 20.3603 31.5591Z" fill="#1F1C1C"/>
<path d="M20.3603 31.5591C19.1688 31.1374 15.5236 31.2855 13.8285 31.6531C13.3137 31.7646 12.2788 32.0196 12.2788 32.0196C12.2788 32.0196 12.1192 32.3118 12.3143 32.4721C12.5095 32.6324 12.9966 32.9201 13.0624 33.0813C13.1282 33.2426 13.2715 35.2465 13.3093 36.0224C13.347 36.7983 13.9747 38.7019 17.3064 38.808C22.1564 38.9624 21.9392 34.8696 21.9937 33.9244C22.0514 32.9215 21.1222 31.8285 20.3603 31.5591Z" stroke="#1F1C1C" stroke-width="0.5"/>
<path d="M25.8574 31.5207C27.0429 31.0824 30.6898 31.1796 32.3898 31.5235C32.9062 31.6277 33.9445 31.8683 33.9445 31.8683C33.9445 31.8683 34.1082 32.1582 33.9153 32.3213C33.7224 32.4843 33.2394 32.7787 33.1759 32.9409C33.1123 33.103 32.997 35.1088 32.9701 35.8851C32.9431 36.6614 32.342 38.5736 29.0122 38.7262C24.1648 38.9484 24.3248 34.853 24.2572 33.9086C24.1855 32.9066 25.0993 31.8007 25.8574 31.5207Z" fill="#1F1C1C"/>
<path d="M25.8574 31.5207C27.0429 31.0824 30.6898 31.1796 32.3898 31.5235C32.9062 31.6277 33.9445 31.8683 33.9445 31.8683C33.9445 31.8683 34.1082 32.1582 33.9153 32.3213C33.7224 32.4843 33.2394 32.7787 33.1759 32.9409C33.1123 33.103 32.997 35.1088 32.9701 35.8851C32.9431 36.6614 32.342 38.5736 29.0122 38.7262C24.1648 38.9484 24.3248 34.853 24.2572 33.9086C24.1855 32.9066 25.0993 31.8007 25.8574 31.5207Z" stroke="#1F1C1C" stroke-width="0.5"/>
</g>
</g>
<path d="M3.5 71L3.5 6C3.5 4.06701 5.067 2.5 7 2.5H40C41.933 2.5 43.5 4.06701 43.5 6V71C43.5 72.933 41.933 74.5 40 74.5H7C5.067 74.5 3.5 72.933 3.5 71Z" stroke="#E2E8F0" shape-rendering="crispEdges"/>
</g>
<defs>
<filter id="filter0_dd_6_9135" x="0" y="0" width="47" height="79" filterUnits="userSpaceOnUse" color-interpolation-filters="sRGB">
<feFlood flood-opacity="0" result="BackgroundImageFix"/>
<feColorMatrix in="SourceAlpha" type="matrix" values="0 0 0 0 0 0 0 0 0 0 0 0 0 0 0 0 0 0 127 0" result="hardAlpha"/>
<feOffset dy="1"/>
<feGaussianBlur stdDeviation="1"/>
<feComposite in2="hardAlpha" operator="out"/>
<feColorMatrix type="matrix" values="0 0 0 0 0 0 0 0 0 0 0 0 0 0 0 0 0 0 0.06 0"/>
<feBlend mode="normal" in2="BackgroundImageFix" result="effect1_dropShadow_6_9135"/>
<feColorMatrix in="SourceAlpha" type="matrix" values="0 0 0 0 0 0 0 0 0 0 0 0 0 0 0 0 0 0 127 0" result="hardAlpha"/>
<feOffset dy="1"/>
<feGaussianBlur stdDeviation="1.5"/>
<feComposite in2="hardAlpha" operator="out"/>
<feColorMatrix type="matrix" values="0 0 0 0 0 0 0 0 0 0 0 0 0 0 0 0 0 0 0.1 0"/>
<feBlend mode="normal" in2="effect1_dropShadow_6_9135" result="effect2_dropShadow_6_9135"/>
<feBlend mode="normal" in="SourceGraphic" in2="effect2_dropShadow_6_9135" result="shape"/>
</filter>
<clipPath id="clip0_6_9135">
<path d="M7 75C4.79086 75 3 73.2091 3 71L3 6C3 3.79086 4.79086 2 7 2H40C42.2091 2 44 3.79086 44 6V71C44 73.2091 42.2091 75 40 75H7Z" fill="white"/>
</clipPath>
<clipPath id="clip1_6_9135">
<rect width="73" height="41" fill="white" transform="matrix(0 -1 1 0 3 75)"/>
</clipPath>
</defs>
</svg>
