<svg width="28" height="28" viewBox="0 0 28 28" fill="none" xmlns="http://www.w3.org/2000/svg">
<g clip-path="url(#clip0_6_10552)">
<path d="M13.1334 3.01682C14.246 2.88289 15.487 3.60614 15.9063 4.6341L21.8612 19.2264C22.1385 19.9095 21.9864 20.5524 21.5265 20.9509L21.3168 21.3024C21.0632 21.7478 20.5898 22.0525 19.9777 22.1261L12.9306 22.9833C11.7436 23.1273 10.4282 22.3605 9.97846 21.2623L4.15205 6.98133C3.92548 6.4255 3.9593 5.87636 4.2163 5.44441L4.73029 4.58053L4.75396 4.59392C4.98391 4.22225 5.39646 3.95772 5.94427 3.89076L13.1334 3.01682Z" fill="#2D2B2A"/>
<path d="M6.4552 4.15515L13.3941 3.31135C14.3207 3.19751 15.3554 3.80357 15.7071 4.66076L21.564 19.0154C21.9123 19.8725 21.4456 20.6594 20.5191 20.7733L13.5801 21.6171C12.6536 21.7309 11.6188 21.1248 11.2671 20.2677L5.4103 5.90971C5.062 5.05252 5.52865 4.26565 6.4552 4.1518V4.15515Z" fill="#F9F0E7"/>
<path d="M10.5198 4.19878C10.7971 4.1519 11.1116 4.31598 11.2266 4.57046C11.3415 4.82493 11.2097 5.06937 10.9324 5.11624C10.6551 5.16312 10.3406 4.99905 10.2256 4.74457C10.1107 4.49009 10.2425 4.24566 10.5198 4.19878Z" fill="#2D2B2A"/>
</g>
<defs>
<clipPath id="clip0_6_10552">
<rect width="18" height="20" fill="white" transform="translate(4 3)"/>
</clipPath>
</defs>
</svg>
