<svg width="28" height="28" viewBox="0 0 28 28" fill="none" xmlns="http://www.w3.org/2000/svg">
<path fill-rule="evenodd" clip-rule="evenodd" d="M11.4194 10.3225L10.5181 11.0759L9.82031 11.5829L10.7216 10.8295L11.4194 10.3225Z" fill="#2D2B2A"/>
<path fill-rule="evenodd" clip-rule="evenodd" d="M10.5181 11.0759C10.267 11.2857 10.2227 11.717 10.3631 12.1576C10.9696 14.0608 12.3778 16.3257 13.7094 17.5344C13.9837 17.7837 14.2892 17.8556 14.5129 17.6935L13.8151 18.2005C13.5914 18.3626 13.2859 18.2907 13.0116 18.0414C11.68 16.8327 10.2718 14.5678 9.66527 12.6645C9.52489 12.224 9.56924 11.7927 9.82025 11.5829L10.5181 11.0759Z" fill="#2D2B2A"/>
<path fill-rule="evenodd" clip-rule="evenodd" d="M14.5127 17.6932C14.5404 17.6731 14.5668 17.6495 14.5917 17.6222L15.408 16.7321C15.4331 16.7047 15.4598 16.6808 15.4878 16.6603L14.79 17.1673C14.762 17.1878 14.7353 17.2117 14.7102 17.239L13.8939 18.1292C13.869 18.1565 13.8426 18.1801 13.8149 18.2001L14.5127 17.6932Z" fill="#2D2B2A"/>
<path fill-rule="evenodd" clip-rule="evenodd" d="M15.4878 16.6605C15.6931 16.5101 15.9684 16.5435 16.223 16.7579L18.6869 18.8361C19.0169 19.1147 19.2004 19.6138 19.1281 20.0375L18.6364 22.913C18.6015 23.1171 18.5171 23.2708 18.3935 23.3619L17.6957 23.8689C17.8193 23.7778 17.9037 23.6241 17.9386 23.42L18.4303 20.5444C18.5026 20.1208 18.3191 19.6217 17.9891 19.3431L15.5252 17.2649C15.2706 17.0505 14.9953 17.0171 14.79 17.1674L15.4878 16.6605Z" fill="#2D2B2A"/>
<path fill-rule="evenodd" clip-rule="evenodd" d="M18.3943 23.3617C18.3307 23.4086 18.2566 23.4388 18.1735 23.4508C18.1328 23.4563 18.0902 23.4588 18.0447 23.458C12.7802 23.3492 5.59157 11.7987 6.8411 5.45557C6.85204 5.40148 6.8648 5.35031 6.87938 5.30285C6.92584 5.1555 7.0004 5.04382 7.09708 4.97266L6.39928 5.47964C6.3026 5.5508 6.22804 5.66248 6.18158 5.80984C6.167 5.85729 6.15423 5.90846 6.14329 5.96256C4.89377 12.3056 12.0824 23.8562 17.3469 23.965C17.3924 23.9658 17.435 23.9633 17.4757 23.9578C17.5588 23.9458 17.6329 23.9156 17.6965 23.8687L18.3943 23.3617Z" fill="#F9F0E7"/>
<path fill-rule="evenodd" clip-rule="evenodd" d="M6.84053 5.456C6.85147 5.4019 6.86423 5.35074 6.87882 5.30328C6.96816 5.0199 7.16143 4.86846 7.41608 4.88341L9.78396 5.02251C10.1328 5.04315 10.4756 5.3898 10.6093 5.85628L11.606 9.33848C11.7233 9.74744 11.651 10.129 11.4195 10.3226L10.5181 11.076C10.2671 11.2858 10.2228 11.717 10.3632 12.1577C10.9697 14.0609 12.3779 16.3258 13.7095 17.5345C14.0177 17.8146 14.3653 17.8707 14.592 17.6226L15.4082 16.7325C15.6179 16.5045 15.9339 16.5145 16.2232 16.7581L18.6871 18.8363C19.0171 19.115 19.2007 19.614 19.1284 20.0377L18.6367 22.9132C18.5838 23.2224 18.4173 23.4161 18.1729 23.4512C18.1322 23.4567 18.0897 23.4592 18.0441 23.4584C12.7796 23.3497 5.59101 11.7991 6.84053 5.456Z" fill="#2D2B2A"/>
</svg>
