<svg width="28" height="28" viewBox="0 0 28 28" fill="none" xmlns="http://www.w3.org/2000/svg">
<path fill-rule="evenodd" clip-rule="evenodd" d="M23.4618 17.2262C23.3143 17.5288 23.0317 17.7644 22.6519 17.8591L9.40388 21.1622C8.65906 21.3479 7.82217 20.9215 7.5346 20.2098L4.72841 13.2642C4.5875 12.9155 4.60465 12.5629 4.74641 12.2722L4.11541 13.5106C3.97365 13.8013 3.95651 14.1539 4.09741 14.5026L6.9036 21.4482C7.19117 22.16 8.02806 22.5864 8.77288 22.4007L22.0209 19.0976C22.4007 19.0029 22.6833 18.7672 22.8308 18.4646L23.4618 17.2262Z" fill="#2D2B2A"/>
<rect width="16.4333" height="10.2708" rx="2" transform="matrix(0.970296 -0.241922 0.374607 0.927184 4.20703 11.9756)" fill="#F9F0E7"/>
<rect width="6.41953" height="0.855937" rx="0.427968" transform="matrix(0.970296 -0.241922 0.374607 0.927184 14.332 12.5962)" fill="#21232C"/>
<rect width="4.81464" height="0.855937" rx="0.427968" transform="matrix(0.970296 -0.241922 0.374607 0.927184 15.1343 14.58)" fill="#21232C"/>
<rect width="3.20976" height="0.855937" rx="0.427968" transform="matrix(0.970296 -0.241922 0.374607 0.927184 15.9355 16.5642)" fill="#21232C"/>
<path opacity="0.4" d="M8.78244 12.9326C9.84186 12.6685 11.0321 13.2748 11.441 14.287C11.85 15.2991 11.3227 16.3337 10.2633 16.5978C9.20385 16.862 8.01361 16.2556 7.60467 15.2435C7.19574 14.2313 7.72302 13.1968 8.78244 12.9326Z" fill="#5E646E"/>
<path d="M8.7181 19.2375L13.4634 18.0543C13.6139 18.0168 13.7525 17.9596 13.8758 17.8874C13.1496 16.6203 11.5582 15.903 10.1273 16.2597C8.69646 16.6165 7.92295 17.9234 8.25984 19.2877C8.4136 19.2908 8.56761 19.275 8.7193 19.2372" fill="#2D2B2A"/>
</svg>
