<svg width="47" height="79" viewBox="0 0 47 79" fill="none" xmlns="http://www.w3.org/2000/svg">
<g filter="url(#filter0_dd_6_9295)">
<g clip-path="url(#clip0_6_9295)">
<path d="M7 75C4.79086 75 3 73.2091 3 71L3 6C3 3.79086 4.79086 2 7 2H40C42.2091 2 44 3.79086 44 6V71C44 73.2091 42.2091 75 40 75H7Z" fill="white" fill-opacity="0.01" shape-rendering="crispEdges"/>
<g clip-path="url(#clip1_6_9295)">
<rect width="73" height="41" transform="matrix(0 -1 1 0 3 75)" fill="white"/>
<rect x="11" y="63" width="25" height="6" rx="3" fill="#848282"/>
<path d="M23.5338 13.3046C32.3117 13.3046 39.4387 22.9976 39.4387 34.9359C39.4387 46.8743 32.3117 56.5673 23.5338 56.5673C14.7559 56.5673 7.62891 46.8743 7.62891 34.9359C7.62891 22.9976 14.7559 13.3046 23.5338 13.3046Z" stroke="#EF4343" stroke-width="0.5"/>
<path d="M26.1612 35.0191C25.5397 34.8303 24.6695 35.1915 24.7811 36.3849C24.8745 37.3846 25.313 38.2932 26.3866 38.0268C26.9201 37.8944 26.79 37.3091 26.7396 36.5572C26.6892 35.8052 26.7826 35.208 26.1612 35.0191Z" fill="#2D2A29"/>
<path d="M26.1612 35.0191C25.5397 34.8303 24.6695 35.1915 24.7811 36.3849C24.8745 37.3846 25.313 38.2932 26.3866 38.0268" fill="white"/>
<path d="M26.1612 35.0191C25.5397 34.8303 24.6695 35.1915 24.7811 36.3849C24.8745 37.3846 25.313 38.2932 26.3866 38.0268" stroke="#1F1C1C" stroke-width="0.5" stroke-linecap="round" stroke-linejoin="round"/>
<path d="M35.3777 34.987C35.9979 34.7938 36.8706 35.1489 36.7673 36.3431C36.6809 37.3434 36.2487 38.2551 35.1734 37.9962C34.6389 37.8675 34.765 37.2813 34.8101 36.529C34.8552 35.7768 34.7576 35.1802 35.3777 34.987Z" fill="#2D2A29"/>
<path d="M35.3777 34.987C35.9979 34.7938 36.8706 35.1489 36.7673 36.3431C36.6809 37.3434 36.2487 38.2551 35.1734 37.9962" fill="white"/>
<path d="M35.3777 34.987C35.9979 34.7938 36.8706 35.1489 36.7673 36.3431C36.6809 37.3434 36.2487 38.2551 35.1734 37.9962" stroke="#1F1C1C" stroke-width="0.5" stroke-linecap="round" stroke-linejoin="round"/>
<path d="M30.7029 29.2139C25.2108 29.209 26.0415 34.507 26.1182 35.9632C26.1949 37.4194 26.9017 42.2239 30.6294 42.3465C34.5695 42.476 35.3164 37.5547 35.4062 35.9308C35.4961 34.3068 36.1469 29.2187 30.7029 29.2139Z" fill="white"/>
<path d="M30.7029 29.2139C25.2108 29.209 26.0415 34.507 26.1182 35.9632C26.1949 37.4194 26.9017 42.2239 30.6294 42.3465C34.5695 42.476 35.3164 37.5547 35.4062 35.9308C35.4961 34.3068 36.1469 29.2187 30.7029 29.2139Z" stroke="#1F1C1C" stroke-width="0.5"/>
<path d="M28.7001 35.1184C28.9472 35.1176 29.1487 35.3817 29.1499 35.7078C29.151 36.034 28.9513 36.2995 28.7043 36.3003C28.4572 36.3012 28.2556 36.0371 28.2545 35.7109C28.2534 35.3848 28.4531 35.1193 28.7001 35.1184Z" fill="#1F1C1C"/>
<path d="M32.8784 35.1038C33.1254 35.103 33.327 35.3671 33.3281 35.6932C33.3292 36.0194 33.1296 36.2849 32.8825 36.2857C32.6354 36.2866 32.4339 36.0225 32.4327 35.6964C32.4316 35.3702 32.6313 35.1047 32.8784 35.1038Z" fill="#1F1C1C"/>
<path d="M27.9345 34.769C28.1722 34.4339 28.8224 34.3181 29.0972 34.3649" stroke="#1F1C1C" stroke-width="0.5" stroke-linecap="round" stroke-linejoin="round"/>
<path d="M33.5932 34.7492C33.3532 34.4158 32.7022 34.3046 32.4278 34.3533" stroke="#1F1C1C" stroke-width="0.5" stroke-linecap="round" stroke-linejoin="round"/>
<path d="M31.0595 35.6713C31.0595 35.6713 31.1124 37.1515 31.0297 37.3786C30.9469 37.6057 30.6248 37.6785 30.5651 37.6787" stroke="#1F1C1C" stroke-width="0.5" stroke-linecap="round" stroke-linejoin="round"/>
<path d="M30.3555 39.7499C30.528 39.8119 30.9882 39.8119 31.1741 39.7499" stroke="#1F1C1C" stroke-width="0.5" stroke-linecap="round" stroke-linejoin="round"/>
<path d="M29.5518 39.0201C29.5518 39.0201 29.8063 39.1345 30.7227 39.1304C31.7227 39.126 32.066 39.0233 32.066 39.0233C32.066 39.0233 31.5524 39.0994 30.7227 39.104C29.997 39.1078 29.5518 39.0201 29.5518 39.0201Z" fill="white"/>
<path d="M29.5518 39.0201C29.5518 39.0201 29.8063 39.1345 30.7227 39.1304C31.7227 39.126 32.066 39.0233 32.066 39.0233C32.066 39.0233 31.5524 39.0994 30.7227 39.104C29.997 39.1078 29.5518 39.0201 29.5518 39.0201Z" stroke="#1F1C1C" stroke-width="0.5" stroke-linecap="round" stroke-linejoin="round"/>
<path d="M13.2099 37.2291C12.2247 36.9297 10.8452 37.5023 11.0222 39.3941C11.1703 40.9788 11.8654 42.4192 13.5672 41.9969C14.4129 41.787 14.2067 40.8592 14.1268 39.6672C14.0469 38.4752 14.195 37.5284 13.2099 37.2291Z" fill="#2D2A29"/>
<path d="M13.2099 37.2291C12.2247 36.9297 10.8452 37.5023 11.0222 39.3941C11.1703 40.9788 11.8654 42.4192 13.5672 41.9969" fill="white"/>
<path d="M13.2099 37.2291C12.2247 36.9297 10.8452 37.5023 11.0222 39.3941C11.1703 40.9788 11.8654 42.4192 13.5672 41.9969" stroke="#1F1C1C" stroke-width="0.5" stroke-linecap="round" stroke-linejoin="round"/>
<path d="M27.8199 37.1781C28.803 36.8719 30.1865 37.4348 30.0227 39.3278C29.8857 40.9135 29.2006 42.3587 27.496 41.9483C26.6488 41.7443 26.8485 40.8151 26.9201 39.6225C26.9916 38.43 26.8369 37.4843 27.8199 37.1781Z" fill="#2D2A29"/>
<path d="M27.8199 37.1781C28.803 36.8719 30.1865 37.4348 30.0227 39.3278C29.8857 40.9135 29.2006 42.3587 27.496 41.9483" fill="white"/>
<path d="M27.8199 37.1781C28.803 36.8719 30.1865 37.4348 30.0227 39.3278C29.8857 40.9135 29.2006 42.3587 27.496 41.9483" stroke="#1F1C1C" stroke-width="0.5" stroke-linecap="round" stroke-linejoin="round"/>
<path d="M20.4093 28.0265C11.7033 28.0187 13.0201 36.4171 13.1417 38.7255C13.2633 41.0339 14.3837 48.65 20.2927 48.8442C26.5387 49.0495 27.7226 41.2484 27.865 38.6741C28.0075 36.0998 29.0391 28.0342 20.4093 28.0265Z" fill="white"/>
<path d="M20.4093 28.0265C11.7033 28.0187 13.0201 36.4171 13.1417 38.7255C13.2633 41.0339 14.3837 48.65 20.2927 48.8442C26.5387 49.0495 27.7226 41.2484 27.865 38.6741C28.0075 36.0998 29.0391 28.0342 20.4093 28.0265Z" stroke="#1F1C1C" stroke-width="0.5"/>
<path d="M17.2341 37.3864C17.6258 37.3851 17.9452 37.8037 17.947 38.3207C17.9488 38.8377 17.6323 39.2586 17.2406 39.26C16.849 39.2613 16.5295 38.8427 16.5277 38.3257C16.5259 37.8087 16.8424 37.3878 17.2341 37.3864Z" fill="#1F1C1C"/>
<path d="M23.8576 37.3633C24.2493 37.3619 24.5688 37.7806 24.5706 38.2976C24.5724 38.8146 24.2558 39.2355 23.8642 39.2368C23.4725 39.2382 23.153 38.8196 23.1512 38.3026C23.1494 37.7855 23.466 37.3647 23.8576 37.3633Z" fill="#1F1C1C"/>
<path d="M16.0213 36.8325C16.3981 36.3013 17.4288 36.1178 17.8643 36.192" stroke="#1F1C1C" stroke-width="0.5" stroke-linecap="round" stroke-linejoin="round"/>
<path d="M24.9915 36.8012C24.611 36.2726 23.5791 36.0964 23.1441 36.1736" stroke="#1F1C1C" stroke-width="0.5" stroke-linecap="round" stroke-linejoin="round"/>
<path d="M20.975 38.2628C20.975 38.2628 21.0589 40.6092 20.9277 40.9692C20.7965 41.3292 20.2859 41.4446 20.1913 41.4449" stroke="#1F1C1C" stroke-width="0.5" stroke-linecap="round" stroke-linejoin="round"/>
<path d="M19.8584 44.7282C20.132 44.8265 20.8614 44.8265 21.156 44.7282" stroke="#1F1C1C" stroke-width="0.5" stroke-linecap="round" stroke-linejoin="round"/>
<path d="M18.5845 43.5715C18.5845 43.5715 18.988 43.7528 20.4407 43.7463C22.0258 43.7393 22.57 43.5764 22.57 43.5764C22.57 43.5764 21.7558 43.6972 20.4407 43.7043C19.2903 43.7104 18.5845 43.5715 18.5845 43.5715Z" fill="white"/>
<path d="M18.5845 43.5715C18.5845 43.5715 18.988 43.7528 20.4407 43.7463C22.0258 43.7393 22.57 43.5764 22.57 43.5764C22.57 43.5764 21.7558 43.6972 20.4407 43.7043C19.2903 43.7104 18.5845 43.5715 18.5845 43.5715Z" stroke="#1F1C1C" stroke-width="0.5" stroke-linecap="round" stroke-linejoin="round"/>
</g>
</g>
<path d="M3.5 71L3.5 6C3.5 4.06701 5.067 2.5 7 2.5H40C41.933 2.5 43.5 4.06701 43.5 6V71C43.5 72.933 41.933 74.5 40 74.5H7C5.067 74.5 3.5 72.933 3.5 71Z" stroke="#E2E8F0" shape-rendering="crispEdges"/>
</g>
<defs>
<filter id="filter0_dd_6_9295" x="0" y="0" width="47" height="79" filterUnits="userSpaceOnUse" color-interpolation-filters="sRGB">
<feFlood flood-opacity="0" result="BackgroundImageFix"/>
<feColorMatrix in="SourceAlpha" type="matrix" values="0 0 0 0 0 0 0 0 0 0 0 0 0 0 0 0 0 0 127 0" result="hardAlpha"/>
<feOffset dy="1"/>
<feGaussianBlur stdDeviation="1"/>
<feComposite in2="hardAlpha" operator="out"/>
<feColorMatrix type="matrix" values="0 0 0 0 0 0 0 0 0 0 0 0 0 0 0 0 0 0 0.06 0"/>
<feBlend mode="normal" in2="BackgroundImageFix" result="effect1_dropShadow_6_9295"/>
<feColorMatrix in="SourceAlpha" type="matrix" values="0 0 0 0 0 0 0 0 0 0 0 0 0 0 0 0 0 0 127 0" result="hardAlpha"/>
<feOffset dy="1"/>
<feGaussianBlur stdDeviation="1.5"/>
<feComposite in2="hardAlpha" operator="out"/>
<feColorMatrix type="matrix" values="0 0 0 0 0 0 0 0 0 0 0 0 0 0 0 0 0 0 0.1 0"/>
<feBlend mode="normal" in2="effect1_dropShadow_6_9295" result="effect2_dropShadow_6_9295"/>
<feBlend mode="normal" in="SourceGraphic" in2="effect2_dropShadow_6_9295" result="shape"/>
</filter>
<clipPath id="clip0_6_9295">
<path d="M7 75C4.79086 75 3 73.2091 3 71L3 6C3 3.79086 4.79086 2 7 2H40C42.2091 2 44 3.79086 44 6V71C44 73.2091 42.2091 75 40 75H7Z" fill="white"/>
</clipPath>
<clipPath id="clip1_6_9295">
<rect width="73" height="41" fill="white" transform="matrix(0 -1 1 0 3 75)"/>
</clipPath>
</defs>
</svg>
