<svg width="28" height="28" viewBox="0 0 28 28" fill="none" xmlns="http://www.w3.org/2000/svg">
<path fill-rule="evenodd" clip-rule="evenodd" d="M17.5259 12.481C15.9716 11.7663 13.9456 11.7261 11.82 12.5305C7.95534 13.9929 5.10325 17.7391 5.02148 21.2369L6.00759 21.685C6.08937 18.1872 8.94146 14.441 12.8062 12.9785C14.9317 12.1742 16.9577 12.2144 18.512 12.9291L17.5259 12.481Z" fill="#5E646E"/>
<path d="M7.10258 21.3367L19.9414 16.368C20.3486 16.2104 20.7391 16.0061 21.1011 15.7685C20.1269 12.7384 16.5834 11.4886 12.7121 12.9869C8.8407 14.4851 5.98575 18.2111 5.90651 21.6489C6.29418 21.5964 6.69541 21.4943 7.10581 21.3355" fill="#2D2B2A"/>
<path fill-rule="evenodd" clip-rule="evenodd" d="M10.1918 10.6578C9.35637 10.2783 8.77166 9.53851 8.63569 8.52842C8.36375 6.50823 9.98974 4.17197 12.2676 3.31002C13.4065 2.87904 14.4927 2.89827 15.3281 3.27776L16.8982 3.99116C16.0627 3.61167 14.9765 3.59244 13.8376 4.02342C11.5598 4.88537 9.93376 7.22163 10.2057 9.24182C10.3417 10.2519 10.9264 10.9917 11.7618 11.3712L10.1918 10.6578Z" fill="#2D2B2A"/>
<path d="M13.5061 3.72185C15.9636 2.77078 18.197 3.74443 18.4949 5.89664C18.7927 8.04884 17.0421 10.5644 14.5846 11.5154C12.1271 12.4665 9.89368 11.4928 9.59587 9.34063C9.29805 7.18842 11.0487 4.67292 13.5061 3.72185Z" fill="#F9F0E7"/>
</svg>
