<svg width="47" height="79" viewBox="0 0 47 79" fill="none" xmlns="http://www.w3.org/2000/svg">
<g filter="url(#filter0_dd_6_9517)">
<g clip-path="url(#clip0_6_9517)">
<path d="M7 75C4.79086 75 3 73.2091 3 71L3 6C3 3.79086 4.79086 2 7 2H40C42.2091 2 44 3.79086 44 6V71C44 73.2091 42.2091 75 40 75H7Z" fill="white" fill-opacity="0.01" shape-rendering="crispEdges"/>
<g clip-path="url(#clip1_6_9517)">
<rect width="73" height="41" transform="matrix(0 -1 1 0 3 75)" fill="white"/>
<path d="M13.1627 34.2082C11.7528 33.7797 9.7785 34.5992 10.0317 37.3067C10.2437 39.5746 11.2385 41.636 13.674 41.0316C14.8844 40.7312 14.5892 39.4034 14.4749 37.6975C14.3606 35.9916 14.5726 34.6366 13.1627 34.2082Z" fill="#2D2A29"/>
<path d="M13.1627 34.2082C11.7528 33.7797 9.7785 34.5992 10.0317 37.3067C10.2437 39.5746 11.2385 41.636 13.674 41.0316" fill="white"/>
<path d="M13.1627 34.2082C11.7528 33.7797 9.7785 34.5992 10.0317 37.3067C10.2437 39.5746 11.2385 41.636 13.674 41.0316" stroke="#1F1C1C" stroke-width="0.5" stroke-linecap="round" stroke-linejoin="round"/>
<path d="M34.0715 34.1352C35.4783 33.6969 37.4583 34.5025 37.224 37.2118C37.0278 39.481 36.0474 41.5494 33.6078 40.962C32.3953 40.6701 32.6813 39.3402 32.7836 37.6335C32.886 35.9269 32.6646 34.5734 34.0715 34.1352Z" fill="#2D2A29"/>
<path d="M34.0715 34.1352C35.4783 33.6969 37.4583 34.5025 37.224 37.2118C37.0278 39.481 36.0474 41.5494 33.6078 40.962" fill="white"/>
<path d="M34.0715 34.1352C35.4783 33.6969 37.4583 34.5025 37.224 37.2118C37.0278 39.481 36.0474 41.5494 33.6078 40.962" stroke="#1F1C1C" stroke-width="0.5" stroke-linecap="round" stroke-linejoin="round"/>
<path d="M23.4663 21.0379C11.0066 21.0268 12.8912 33.0461 13.0652 36.3497C13.2392 39.6534 14.8428 50.5533 23.2995 50.8312C32.2383 51.125 33.9327 39.9604 34.1366 36.2762C34.3404 32.592 35.8168 21.0489 23.4663 21.0379Z" fill="white"/>
<path d="M23.4663 21.0379C11.0066 21.0268 12.8912 33.0461 13.0652 36.3497C13.2392 39.6534 14.8428 50.5533 23.2995 50.8312C32.2383 51.125 33.9327 39.9604 34.1366 36.2762C34.3404 32.592 35.8168 21.0489 23.4663 21.0379Z" stroke="#1F1C1C" stroke-width="0.5"/>
<path d="M18.9219 34.4335C19.4824 34.4316 19.9396 35.0307 19.9422 35.7706C19.9448 36.5105 19.4918 37.1129 18.9313 37.1148C18.3707 37.1168 17.9135 36.5176 17.9109 35.7777C17.9083 35.0378 18.3614 34.4355 18.9219 34.4335Z" fill="#1F1C1C"/>
<path d="M28.4014 34.4002C28.9619 34.3982 29.4191 34.9974 29.4217 35.7373C29.4243 36.4772 28.9713 37.0796 28.4108 37.0815C27.8502 37.0835 27.393 36.4843 27.3904 35.7444C27.3878 35.0045 27.8409 34.4022 28.4014 34.4002Z" fill="#1F1C1C"/>
<path d="M17.1864 33.6408C17.7256 32.8805 19.2007 32.618 19.824 32.7241" stroke="#1F1C1C" stroke-width="0.5" stroke-linecap="round" stroke-linejoin="round"/>
<path d="M30.0238 33.5958C29.4792 32.8393 28.0023 32.5871 27.3798 32.6976" stroke="#1F1C1C" stroke-width="0.5" stroke-linecap="round" stroke-linejoin="round"/>
<path d="M24.2757 35.6876C24.2757 35.6876 24.3958 39.0457 24.208 39.5609C24.0202 40.0762 23.2895 40.2412 23.1541 40.2417" stroke="#1F1C1C" stroke-width="0.5" stroke-linecap="round" stroke-linejoin="round"/>
<path d="M22.6777 44.9406C23.0693 45.0812 24.1131 45.0812 24.5348 44.9406" stroke="#1F1C1C" stroke-width="0.5" stroke-linecap="round" stroke-linejoin="round"/>
<path d="M20.8545 43.285C20.8545 43.285 21.432 43.5445 23.511 43.5352C25.7796 43.5252 26.5584 43.292 26.5584 43.292C26.5584 43.292 25.3932 43.4648 23.511 43.4751C21.8646 43.4838 20.8545 43.285 20.8545 43.285Z" fill="white"/>
<path d="M20.8545 43.285C20.8545 43.285 21.432 43.5445 23.511 43.5352C25.7796 43.5252 26.5584 43.292 26.5584 43.292C26.5584 43.292 25.3932 43.4648 23.511 43.4751C21.8646 43.4838 20.8545 43.285 20.8545 43.285Z" stroke="#1F1C1C" stroke-width="0.5" stroke-linecap="round" stroke-linejoin="round"/>
<path d="M23.9049 13C32.6828 13 39.8098 22.693 39.8098 34.6314C39.8098 46.5697 32.6828 56.2627 23.9049 56.2627C15.127 56.2627 8 46.5697 8 34.6314C8 22.693 15.127 13 23.9049 13Z" fill="#0D0D0D" fill-opacity="0.7" stroke="#EF4343" stroke-width="0.5"/>
</g>
<rect x="11" y="63" width="25" height="6" rx="3" fill="#848282"/>
</g>
<path d="M3.5 71L3.5 6C3.5 4.06701 5.067 2.5 7 2.5H40C41.933 2.5 43.5 4.06701 43.5 6V71C43.5 72.933 41.933 74.5 40 74.5H7C5.067 74.5 3.5 72.933 3.5 71Z" stroke="#E2E8F0" shape-rendering="crispEdges"/>
</g>
<defs>
<filter id="filter0_dd_6_9517" x="0" y="0" width="47" height="79" filterUnits="userSpaceOnUse" color-interpolation-filters="sRGB">
<feFlood flood-opacity="0" result="BackgroundImageFix"/>
<feColorMatrix in="SourceAlpha" type="matrix" values="0 0 0 0 0 0 0 0 0 0 0 0 0 0 0 0 0 0 127 0" result="hardAlpha"/>
<feOffset dy="1"/>
<feGaussianBlur stdDeviation="1"/>
<feComposite in2="hardAlpha" operator="out"/>
<feColorMatrix type="matrix" values="0 0 0 0 0 0 0 0 0 0 0 0 0 0 0 0 0 0 0.06 0"/>
<feBlend mode="normal" in2="BackgroundImageFix" result="effect1_dropShadow_6_9517"/>
<feColorMatrix in="SourceAlpha" type="matrix" values="0 0 0 0 0 0 0 0 0 0 0 0 0 0 0 0 0 0 127 0" result="hardAlpha"/>
<feOffset dy="1"/>
<feGaussianBlur stdDeviation="1.5"/>
<feComposite in2="hardAlpha" operator="out"/>
<feColorMatrix type="matrix" values="0 0 0 0 0 0 0 0 0 0 0 0 0 0 0 0 0 0 0.1 0"/>
<feBlend mode="normal" in2="effect1_dropShadow_6_9517" result="effect2_dropShadow_6_9517"/>
<feBlend mode="normal" in="SourceGraphic" in2="effect2_dropShadow_6_9517" result="shape"/>
</filter>
<clipPath id="clip0_6_9517">
<path d="M7 75C4.79086 75 3 73.2091 3 71L3 6C3 3.79086 4.79086 2 7 2H40C42.2091 2 44 3.79086 44 6V71C44 73.2091 42.2091 75 40 75H7Z" fill="white"/>
</clipPath>
<clipPath id="clip1_6_9517">
<rect width="73" height="41" fill="white" transform="matrix(0 -1 1 0 3 75)"/>
</clipPath>
</defs>
</svg>
